<svg xmlns="http://www.w3.org/2000/svg" viewBox="0 0 134 83"><defs><style>.cls-1{isolation:isolate;}.cls-2,.cls-3{fill:none;}.cls-3{stroke:#fff;stroke-miterlimit:10;stroke-width:5px;}.cls-4{fill:#fff;fill-rule:evenodd;}</style></defs><title>cazoobi-head-logo</title><g id="Head" class="cls-1"><path class="cls-2" d="M121.66,46c-.58-5.68-5.23-11.34-10.36-12.52A175.43,175.43,0,0,0,70.49,28,184.88,184.88,0,0,0,28.7,33.54c-5.13,1.18-9.78,6.84-10.36,12.52a205.68,205.68,0,0,0,0,46.88c.58,5.68,5.23,11.34,10.36,12.52A180.9,180.9,0,0,0,70.49,111a175.43,175.43,0,0,0,40.81-5.52c5.13-1.18,9.78-6.84,10.36-12.52A203.94,203.94,0,0,0,123,69.52,204.46,204.46,0,0,0,121.66,46Z" transform="translate(-3 -28)"/><path class="cls-3" d="M70.49,108.5a180.24,180.24,0,0,1-41.11-5.44l-.12,0c-4.1-1-8-5.68-8.43-10.34a203,203,0,0,1,0-46.31c.48-4.73,4.34-9.46,8.44-10.41l.11,0A184,184,0,0,1,70.54,30.5a174.59,174.59,0,0,1,40.08,5.42l.12,0c4.1.95,8,5.68,8.43,10.34a203.93,203.93,0,0,1,1.33,23.23,204.26,204.26,0,0,1-1.32,23.12c-.48,4.73-4.34,9.46-8.44,10.41l-.12,0A175.15,175.15,0,0,1,70.49,108.5Z" transform="translate(-3 -28)"/></g><g id="Features" class="cls-1"><g id="Features-2" data-name="Features"><path class="cls-4" d="M56.5,29A2.5,2.5,0,0,0,54,31.5v13a2.5,2.5,0,0,0,5,0v-13A2.5,2.5,0,0,0,56.5,29ZM47,71.06a8.81,8.81,0,1,0,8.83,8.81A8.82,8.82,0,0,0,47,71.06ZM3,80.51A9.61,9.61,0,0,0,13,90L12,71A9.61,9.61,0,0,0,3,80.51ZM70.5,29A2.5,2.5,0,0,0,68,31.5V50.75a2.5,2.5,0,0,0,5,0V31.5A2.5,2.5,0,0,0,70.5,29ZM128,71l-1,19c6,0,10-4.47,10-9.5A9.61,9.61,0,0,0,128,71Zm-34,0a8.81,8.81,0,1,0,8.83,8.81A8.82,8.82,0,0,0,94,71.06ZM87,44.5v-12a2.5,2.5,0,0,0-5,0v12a2.5,2.5,0,0,0,5,0Z" transform="translate(-3 -28)"/></g></g></svg>